<svg id="apartment" xmlns="http://www.w3.org/2000/svg"  viewBox="0 0 14.108 14.107">
  <path id="Path_4" data-name="Path 4" d="M91.36.019h-3.2V1.973l3.2-.534Z" transform="translate(-85.727 -0.019)" fill="#050358"/>
  <path id="Path_5" data-name="Path 5" d="M12.687,87.055V77.8H7.467v9.25H6.641V75.864l-5.219.87V87.055H0v.827H14.108v-.827Zm-2.041-8.061h.878v.827h-.878Zm0,2.015h.878v.827h-.878Zm0,2.015h.878v.827h-.878Zm0,2.015h.878v.827h-.878ZM8.63,78.993h.878v.827H8.63Zm0,2.015h.878v.827H8.63Zm0,2.015h.878v.827H8.63Zm0,2.015h.878v.827H8.63ZM4.6,76.978h.878V77.8H4.6Zm0,2.015h.878v.827H4.6Zm0,2.015h.878v.827H4.6Zm0,2.015h.878v.827H4.6ZM2.584,78.993h.878v.827H2.584Zm0,2.015h.878v.827H2.584Zm0,2.015h.878v.827H2.584Zm.026,2.015H5.452v2.015H4.625V85.866H3.437v1.189H2.61Z" transform="translate(0 -73.774)" fill="#050358"/>
</svg>
