<svg xmlns="http://www.w3.org/2000/svg" width="13.271" height="14.107" viewBox="0 0 13.271 14.107">
  <g id="bulding" transform="translate(0 0)">
    <path id="Path_6" data-name="Path 6" d="M365.132,186.126h-.9v-.713a.15.15,0,1,0-.3,0v.713H363v.751h2.132Z" transform="translate(-353.152 -180.336)" fill="#040e54"/>
    <path id="Path_7" data-name="Path 7" d="M185.5,185H181v8.287h4.5Zm-3.633,7.654a.15.15,0,1,1-.3,0v-6.783a.15.15,0,1,1,.3,0Zm1.021,0a.15.15,0,1,1-.3,0v-6.783a.15.15,0,0,1,.3,0Zm.991,0a.15.15,0,1,1-.3,0v-6.783a.15.15,0,0,1,.3,0Zm1.021,0a.15.15,0,1,1-.3,0v-6.783a.15.15,0,0,1,.3,0Z" transform="translate(-176.616 -180.081)" fill="#040e54"/>
    <path id="Path_8" data-name="Path 8" d="M207.122,25.474a.476.476,0,0,0-.482-.481h-.96V24.4a1.873,1.873,0,0,0,.579.09,1.9,1.9,0,0,0,1.344-.556.15.15,0,0,0,0-.212l-1.132-1.132.419-.42a.549.549,0,1,0-.205-.219l-.426.426-1.132-1.132a.15.15,0,0,0-.212,0,1.9,1.9,0,0,0,0,2.688,1.681,1.681,0,0,0,.465.341v.713h-.9a.476.476,0,0,0-.482.481v.3h3.123Z" transform="translate(-198.925 -21.155)" fill="#040e54"/>
    <path id="Path_9" data-name="Path 9" d="M341.841,254.281a.139.139,0,0,1,.139-.147h1.494a.138.138,0,0,1,.138.147v1.084h.841V249H341v6.365h.841Zm-.224-4.2h2.22a.15.15,0,0,1,0,.3h-2.22a.15.15,0,0,1,0-.3Zm0,1.021h2.22a.15.15,0,0,1,0,.3h-2.22a.15.15,0,0,1,0-.3Zm0,1.021h2.22a.15.15,0,0,1,0,.3h-2.22a.15.15,0,1,1,0-.3Zm-.15,1.171a.15.15,0,0,1,.15-.15h2.22a.15.15,0,0,1,0,.3h-2.22A.15.15,0,0,1,341.467,253.294Z" transform="translate(-331.812 -242.159)" fill="#040e54"/>
    <path id="Path_10" data-name="Path 10" d="M379,430h1.171v.931H379Z" transform="translate(-368.671 -417.724)" fill="#040e54"/>
    <path id="Path_11" data-name="Path 11" d="M35,471H48.271v.6H35Z" transform="translate(-35 -457.493)" fill="#040e54"/>
    <path id="Path_12" data-name="Path 12" d="M80.132,261.036H79.2s0-.012,0-.014v-.608a.15.15,0,0,0-.3,0v.608s0,.014,0,.014H78v.45h2.132Z" transform="translate(-76.709 -253.084)" fill="#040e54"/>
    <path id="Path_13" data-name="Path 13" d="M56.841,314.78a.136.136,0,0,1,.136-.147h1.494a.14.14,0,0,1,.141.147v.724h.841V311H56v4.5h.841Zm-.226-3.18h2.22a.15.15,0,1,1,0,.3h-2.22a.15.15,0,1,1,0-.3Zm0,1.021h2.22a.15.15,0,0,1,0,.3h-2.22a.15.15,0,0,1,0-.3Zm-.15,1.171a.15.15,0,0,1,.15-.15h2.22a.15.15,0,0,1,0,.3h-2.22A.15.15,0,0,1,56.464,313.792Z" transform="translate(-55.369 -302.297)" fill="#040e54"/>
    <path id="Path_14" data-name="Path 14" d="M94,442h1.171v.57H94Z" transform="translate(-92.229 -429.364)" fill="#040e54"/>
  </g>
</svg>
