<?xml version="1.0" encoding="utf-8"?>
<!-- Generator: Adobe Illustrator 25.0.1, SVG Export Plug-In . SVG Version: 6.00 Build 0)  -->
<svg version="1.1" xmlns="http://www.w3.org/2000/svg" xmlns:xlink="http://www.w3.org/1999/xlink" x="0px" y="0px"
	 viewBox="0 0 1080 1080" style="enable-background:new 0 0 1080 1080;" xml:space="preserve">
<style type="text/css">
	.st0{opacity:0.5;}
	.st1{fill:#62A9FD;}
</style>
<g class="st0">
	<g id="Layer_1">
	</g>
</g>
<g>
	<g>
		<path class="st1" d="M637.88,249.77c-3.72,0-6.75,3.03-6.75,6.75c0,35-28.47,63.47-63.47,63.47c-34.99,0-63.46-28.47-63.46-63.47
			c0-3.72-3.03-6.75-6.75-6.75c-3.72,0-6.75,3.03-6.75,6.75c0,57.99-47.18,105.17-105.17,105.17c-3.72,0-6.75,3.03-6.75,6.75
			c0,3.72,3.03,6.75,6.75,6.75c52.54,0,98.29-34.17,113.48-83.89c13.06,25.84,39.33,42.19,68.65,42.19
			c28.5,0,54.38-15.67,67.75-40.46c6.83,28.18,21.44,51.68,41.59,66.69c5.71,4.25,12.31,7.09,19.23,8.3
			c-0.98,4.79-1.97,9.88-3.02,15.49c-8.62,48.33-9.85,97-3.66,144.66c0.53,4.05,13.36,99.83,54.2,157.81
			c0.82,1.17,1.1,2.58,0.8,3.99c-0.31,1.42-1.17,2.6-2.42,3.33c-44.85,26.17-124.26,56.68-200.62,56.68c-0.11,0-0.23,0-0.34,0
			c-75.49-0.09-165-15.08-208.21-34.88c-3.38-1.55-7.4-0.06-8.94,3.33c-0.75,1.64-0.82,3.47-0.19,5.16
			c0.63,1.69,1.88,3.03,3.52,3.78c49.01,22.46,120.14,35.39,200.28,36.43c5.38,0.07,11.61,0.13,16.73,0.13
			c3.95,0,7.24-0.04,8.97-0.14c77.48-4.44,151.84-33.31,195.6-58.84c4.49-2.62,7.7-7.04,8.81-12.12c1.1-5.07,0.03-10.4-2.95-14.63
			c-38.93-55.26-51.35-147.86-51.86-151.78c-6.01-46.29-4.81-93.57,3.55-140.5c1.21-6.46,2.35-12.25,3.47-17.62
			c11.97-1.52,22.56-7.6,29.98-17.25l0.36-0.46c5.1-6.62,15.7-20.39,13.01-33.46c-1.23-6-4.95-10.76-11.05-14.16
			c-7.97-4.44-14.38-3.19-18.35-1.36c-15.33,7.05-21.33,35.61-24.91,53.17c-5.02-0.8-9.79-2.82-13.93-5.89
			c-24.94-18.57-40.43-53.96-40.43-92.38C644.63,252.8,641.6,249.77,637.88,249.77z M712.94,353.95
			c2.62-12.51,8.18-36.2,16.59-40.07c0.45-0.21,1.09-0.45,1.95-0.45c1.19,0,2.61,0.45,4.2,1.34c2.58,1.44,3.98,3.06,4.4,5.09
			c1.45,7.01-7.22,18.26-10.49,22.5l-0.36,0.47C725.08,348.23,719.38,352.1,712.94,353.95z M351.78,507.42
			c5.4,13.9,10.5,27.04,13.71,39.85c0.07,0.46,0.17,0.88,0.31,1.27c8.02,33.11,4.21,67.97-40.26,130.29
			c-2.07,2.89-4.64,7.29-3.03,12.02c0.57,1.66,2.16,4.64,6.43,5.91c11.85,3.53,23.94,5.32,35.93,5.32c26.93,0,53.2-8.76,78.08-26.04
			c14.65-10.17,28.49-23.1,41.21-38.46c14.38,52.85,62.76,105.11,64.87,107.43c1.27,1.41,3.1,2.22,5.13,2.22c0,0,0.01,0,0.01,0
			c1.96-0.04,3.79-0.92,5.05-2.42c1.8-2.15,43.04-50.58,56.22-114.59c9.85,12.04,20.47,22.39,31.63,30.83
			c30.63,23.16,54.68,28.55,79.41,32.03c3.72,0.5,7.11-2.13,7.61-5.74c0.52-3.68-2.06-7.1-5.74-7.62
			c-61.99-8.73-102.23-36.46-146.51-134.47c-34.72-76.85-62.11-106.79-107.77-107.54c-28.45-0.49-55.43,10.37-75.95,30.52
			c-13.63,13.38-23.4,29.81-28.54,47.9c-1.7-4.55-3.48-9.12-5.22-13.6l-0.79-2.03c-11.92-30.76-28.24-72.9-28.24-138.67
			c0-159.05,107.16-215.49,198.93-215.49c69.12,0,100.97,30.1,101.26,30.39c2.64,2.61,6.91,2.6,9.54-0.03
			c2.62-2.64,2.61-6.92-0.02-9.54c-1.41-1.4-35.37-34.31-110.78-34.31c-50.82,0-101.15,17.55-138.08,48.14
			c-22.87,18.95-40.78,42.76-53.23,70.79c-14.01,31.55-21.12,68.58-21.12,110.06c0,68.3,16.85,111.79,29.15,143.55L351.78,507.42z
			 M473.85,451.21c15.47,0.25,28.2,4.44,40.04,13.18c19.32,16.8,15.94,64.91-8.05,114.47c-32.14,66.38-96.37,124.36-168.23,106.29
			c46.42-65.55,50.15-103.4,41.3-139.85c0.25-25.59,10.42-49.53,28.67-67.44C425.5,460.27,449.05,450.84,473.85,451.21z
			 M539.51,492.52c9.74,14.43,19.38,33.16,29.91,58c10.79,25.46,22.2,46.71,34.88,64.92c-7.43,53.19-38.52,98.06-50.54,114.37
			c-14.23-17.07-51.6-63.6-58.87-106.11c8.69-12.15,16.46-25.25,23.1-38.96C534.24,551.18,541.84,518.26,539.51,492.52z
			 M944.39,863.75l-27.69,47.89v31.27c0,1.32-1.07,2.4-2.4,2.4h-12.4c-1.33,0-2.4-1.07-2.4-2.4v-31.27l-27.69-47.89
			c-0.43-0.74-0.43-1.66,0-2.4c0.43-0.74,1.22-1.2,2.08-1.2h12.74c0.87,0,1.67,0.47,2.1,1.23l19.38,34.8l19.38-34.8
			c0.42-0.76,1.23-1.23,2.1-1.23h12.74c0.86,0,1.65,0.46,2.08,1.2C944.82,862.09,944.82,863.01,944.39,863.75z M806.87,893.77v18.25
			c0,6.38,1.62,11.15,4.95,14.59c3.3,3.4,7.84,5.06,13.89,5.06c5.86,0,10.3-1.56,13.17-4.63c2.56-2.74,4.16-6.86,4.78-12.26h-11.75
			c-1.33,0-2.4-1.07-2.4-2.4v-6.44c0-1.32,1.07-2.4,2.4-2.4h27.33c1.33,0,2.4,1.07,2.4,2.4c0,13.62-3,23.99-8.92,30.81
			c-6.02,6.91-15.1,10.41-27.01,10.41c-11.17,0-20.05-3.15-26.37-9.37c-6.34-6.21-9.56-14.88-9.56-25.77v-18.25
			c0-10.86,3.22-19.53,9.56-25.77c6.33-6.21,15.2-9.35,26.37-9.35c11.14,0,20.01,3.14,26.36,9.34c6.35,6.24,9.56,14.91,9.56,25.77
			c0,1.32-1.07,2.4-2.4,2.4h-12.4c-1.33,0-2.4-1.07-2.4-2.4c0-6.39-1.6-11.16-4.9-14.58c-3.23-3.37-7.88-5.07-13.82-5.07
			c-5.95,0-10.62,1.71-13.89,5.08c0,0,0,0,0,0C808.48,882.62,806.87,887.39,806.87,893.77z M496.33,933.61v9.29
			c0,1.32-1.07,2.4-2.4,2.4h-58.78c-1.33,0-2.4-1.07-2.4-2.4v-80.36c0-1.32,1.07-2.4,2.4-2.4h58.43c1.33,0,2.4,1.07,2.4,2.4v9.29
			c0,1.32-1.07,2.4-2.4,2.4h-43.74v21.38h40.65c1.33,0,2.4,1.07,2.4,2.4v9.41c0,1.32-1.07,2.4-2.4,2.4h-40.65v21.38h44.1
			C495.26,931.22,496.33,932.29,496.33,933.61z M579.14,907.03c2.01-4.52,3.02-9.75,3.02-15.56c0-9.66-2.48-17.36-7.38-22.87
			c-4.98-5.6-11.96-8.45-20.75-8.45h-39.71c-1.33,0-2.4,1.07-2.4,2.4v80.36c0,1.32,1.07,2.4,2.4,2.4h12.28c1.33,0,2.4-1.07,2.4-2.4
			v-20.34h19.91l15.94,21.76c0.45,0.62,1.17,0.98,1.94,0.98h12.97c0.91,0,1.74-0.51,2.14-1.32c0.41-0.81,0.32-1.78-0.22-2.51
			l-15.9-21.46c1.45-0.57,2.8-1.26,4.06-2.06C573.97,915.33,577.09,911.65,579.14,907.03z M564.96,891.47c0,5.43-1.31,9.7-3.9,12.68
			c0,0,0,0-0.01,0.01c-2.51,2.91-5.97,4.33-10.57,4.33h-21.48v-34.24h21.48c4.59,0,8.04,1.42,10.57,4.35
			C563.65,881.57,564.96,885.9,564.96,891.47z M239.55,875.4c2.43,5.4,3.66,11.85,3.66,19.18v48.33c0,1.32-1.07,2.4-2.4,2.4h-12.28
			c-1.33,0-2.4-1.07-2.4-2.4v-49.94c0-5.92-1.31-10.54-3.9-13.75c-2.49-3.11-5.8-4.62-10.12-4.62c-4.5,0-7.91,1.51-10.42,4.62
			c-2.63,3.22-3.96,7.84-3.96,13.75v49.94c0,1.32-1.07,2.4-2.4,2.4h-12.28c-1.33,0-2.4-1.07-2.4-2.4v-49.94
			c0-5.92-1.3-10.55-3.85-13.76c-2.44-3.1-5.72-4.61-10.05-4.61c-4.49,0-7.88,1.51-10.35,4.61c-2.59,3.22-3.91,7.85-3.91,13.76
			l-0.12,49.95c0,1.32-1.08,2.39-2.4,2.39h-12.28c-1.33,0-2.4-1.07-2.4-2.4v-48.33c0-7.33,1.23-13.78,3.66-19.17
			c2.49-5.52,6.17-9.8,10.94-12.72c4.73-2.91,10.41-4.39,16.86-4.39c4.87,0,9.29,1,13.15,2.98c3.91,1.99,7.07,4.98,9.36,8.89
			c0.01,0.02,0.02,0.03,0.03,0.05c0-0.01,0.01-0.01,0.01-0.02c2.26-3.93,5.45-6.93,9.46-8.93c3.89-1.97,8.39-2.97,13.35-2.97
			c6.28,0,11.86,1.48,16.58,4.39c0,0,0,0,0,0C233.4,865.61,237.06,869.88,239.55,875.4z M294.71,858.65
			c-11.14,0-20.02,3.14-26.37,9.35c-6.34,6.24-9.56,14.91-9.56,25.77v18.25c0,10.88,3.22,19.56,9.56,25.77
			c6.34,6.22,15.21,9.37,26.37,9.37c11.17,0,20.05-3.15,26.37-9.37c6.34-6.21,9.56-14.89,9.56-25.77v-18.25
			c0-10.86-3.22-19.53-9.56-25.77C314.75,861.8,305.87,858.65,294.71,858.65z M294.71,931.67c-6.03,0-10.57-1.66-13.88-5.05
			c-3.29-3.41-4.96-8.32-4.96-14.59v-18.25c0-6.28,1.67-11.18,4.95-14.57c3.33-3.42,7.88-5.08,13.89-5.08
			c5.94,0,10.59,1.71,13.83,5.07c3.3,3.42,4.9,8.19,4.9,14.58v18.25c0,6.39-1.6,11.16-4.9,14.6
			C305.27,930.02,300.75,931.67,294.71,931.67z M665.82,875.28c2.9,5.44,4.36,11.93,4.36,19.3v48.33c0,1.32-1.07,2.4-2.4,2.4H655.5
			c-1.33,0-2.4-1.07-2.4-2.4v-48.33c0-6.36-1.69-11.35-5.02-14.82c-3.35-3.48-7.95-5.17-14.06-5.17c-6.18,0-10.82,1.69-14.18,5.17
			c-3.31,3.45-5,8.44-5,14.81v48.33c0,1.32-1.07,2.4-2.4,2.4h-12.28c-1.33,0-2.4-1.07-2.4-2.4v-48.33c0-7.44,1.45-13.93,4.3-19.28
			c2.89-5.44,7.15-9.68,12.65-12.59c5.4-2.85,11.86-4.29,19.19-4.29c7.41,0,13.89,1.45,19.27,4.29c0,0,0.01,0,0.01,0.01
			C658.62,865.62,662.87,869.85,665.82,875.28z M401.29,864.71c-5.34-3.03-12.28-4.56-20.63-4.56h-32.03c-1.33,0-2.4,1.07-2.4,2.4
			v80.36c0,1.32,1.07,2.4,2.4,2.4h32.03c8.47,0,15.46-1.47,20.78-4.37c5.46-2.98,9.51-7.65,12.04-13.88
			c2.44-5.99,3.68-13.91,3.68-23.52c0-10.21-1.22-18.22-3.73-24.49C410.86,872.61,406.77,867.79,401.29,864.71z M400.07,903.53
			c0,7.2-0.69,12.91-2.06,16.97c0,0,0,0,0,0c-1.27,3.79-3.27,6.44-6.1,8.11c-2.95,1.73-7.12,2.6-12.39,2.6h-16.2v-56.98h16.2
			c5.31,0,9.5,0.93,12.46,2.75c2.84,1.76,4.83,4.58,6.08,8.59C399.39,889.9,400.07,895.94,400.07,903.53z M777.63,933.61v9.29
			c0,1.32-1.07,2.4-2.4,2.4h-58.78c-1.33,0-2.4-1.07-2.4-2.4v-80.36c0-1.32,1.07-2.4,2.4-2.4h58.45c1.33,0,2.4,1.07,2.4,2.4v9.29
			c0,1.32-1.07,2.4-2.4,2.4h-43.76v21.38h40.65c1.33,0,2.4,1.07,2.4,2.4v9.41c0,1.32-1.07,2.4-2.4,2.4h-40.65v21.38h44.1
			C776.56,931.22,777.63,932.29,777.63,933.61z"/>
	</g>
</g>
</svg>
