<svg xmlns="http://www.w3.org/2000/svg" width="152.285" height="78.708" viewBox="0 0 152.285 78.708">
  <g id="logo" transform="translate(-581.92 -330)">
    <g id="word" transform="translate(581.92 388.613)">
      <path id="Path_1967" data-name="Path 1967" d="M599.753,636.924l-.084.02h-2.25l-1.834-10.584-5.737,10.584-5.25-9.889-1.138,9.889h-.949l1.1-9.573c.127-1.329.676-4.87-1.687-5.419v-.107c2.994.084,4.007,2.815,4.808,4.281l3.854,7.361L597.1,621.51Z" transform="translate(-581.92 -621.51)" fill="#fff"/>
      <path id="Path_1968" data-name="Path 1968" d="M707.908,651.119c0,3.774-2.256,5.429-5.027,5.429s-5.041-1.665-5.041-5.429c0-3.649,2.256-5.429,5.041-5.429S707.908,647.427,707.908,651.119Zm-2.3,0c0-3.356-.887-4.964-2.71-4.964s-2.743,1.625-2.743,4.956c0,3.456.907,4.954,2.743,4.954S705.609,654.575,705.609,651.119Z" transform="translate(-674.532 -640.828)" fill="#fff"/>
      <path id="Path_1969" data-name="Path 1969" d="M785.322,621.51v15.434h-2.109v-1.261a4.121,4.121,0,0,1-3.478,1.56c-3.247,0-4.554-2.318-4.554-5.4s1.307-5.429,4.554-5.429a4.311,4.311,0,0,1,3.478,1.58v-4.4a2.039,2.039,0,0,0-1.876-1.983v-.1Zm-2.109,7.538c-2.445-3.523-5.714-2.151-5.714,2.8-.02,5,3.269,6.285,5.714,2.785Z" transform="translate(-736.321 -621.51)" fill="#fff"/>
      <path id="Path_1970" data-name="Path 1970" d="M856.258,650.672v.487c0,3.879,3.523,6.836,6.812,2.994l.358.338c-.127.273-1.307,2.107-4.343,2.107-3.247,0-5.145-2.361-5.145-5.429s1.9-5.429,5.145-5.429c3.879,0,4.365,2.974,4.365,4.134v.8Zm.064-.8h4.6c-.042-2.3-.422-3.4-1.81-3.4-1.337,0-2.513.742-2.787,3.4Z" transform="translate(-799.245 -640.868)" fill="#fff"/>
      <path id="Path_1971" data-name="Path 1971" d="M932.049,645.84V647.1c-1.54,0-3.205-.231-3.754,2.952v6.326h-2.109v-8.413a2.061,2.061,0,0,0-1.876-2.025v-.1H928.3v2.741C928.906,646.325,930.193,645.84,932.049,645.84Z" transform="translate(-855.466 -640.948)" fill="#fff"/>
      <path id="Path_1972" data-name="Path 1972" d="M1000.95,649.188l-.022,7.106H998.82v-6.979c0-2.011-1.182-2.889-2.089-2.889a3.386,3.386,0,0,0-2.676,1.351v8.517h-2.109v-8.475a2.025,2.025,0,0,0-1.876-1.983v-.107h3.985v1.118a3.879,3.879,0,0,1,2.7-1.118C999.747,645.73,1000.95,647.5,1000.95,649.188Z" transform="translate(-908.004 -640.86)" fill="#fff"/>
      <path id="Path_1973" data-name="Path 1973" d="M1132.338,636.144v.8h-9.722V623.659c0-.907-.589-1.687-1.876-2.045v-.1h11.6v.8h-7.4v6.117h6.179v.949h-6.179v6.768Z" transform="translate(-1012.4 -621.51)" fill="#fff"/>
      <path id="Path_1974" data-name="Path 1974" d="M1217.685,657.391c0,1.518-.6,3.563-4.954,3.563-3.943,0-4.956-1.391-4.956-2.72a2.435,2.435,0,0,1,1.92-2.276,2.064,2.064,0,0,1-1.92-2.151,2.469,2.469,0,0,1,1.9-2.489,3.213,3.213,0,0,1-.8-2.276c0-2.236,1.707-3.312,3.69-3.312a4.686,4.686,0,0,1,1.9.38h2.909v.8h-1.834a3.239,3.239,0,0,1,.716,2.129c0,2.318-1.707,3.332-3.69,3.332a4.344,4.344,0,0,1-2.4-.653c-.338.1-1.478.273-1.371,1.349.127.991,2.72.842,3.9.842C1214.713,653.91,1217.685,653.659,1217.685,657.391Zm-.716.38c0-1.371-1.222-1.81-3.163-1.81h-2.236c-1.349,0-1.96,1.005-1.96,2.256,0,1.076.907,2.212,3.121,2.212,3.647,0,4.239-1.289,4.239-2.658Zm-6.115-8.73c0,2.129.4,2.783,1.707,2.783s1.609-.653,1.609-2.783c0-2.045-.3-2.827-1.609-2.827S1210.854,647.016,1210.854,649.041Z" transform="translate(-1081.933 -640.859)" fill="#fff"/>
      <path id="Path_1975" data-name="Path 1975" d="M1295.391,645.84,1289.612,661h-.843l1.749-4.625-4.45-9.1a2.079,2.079,0,0,0-1.729-1.329v-.1h1.836a2.5,2.5,0,0,1,2.234,1.391l3.143,6.452,2.994-7.842Z" transform="translate(-1143.105 -640.948)" fill="#fff"/>
    </g>
    <g id="icon" transform="translate(639.792 330)">
      <g id="frame" transform="translate(0 0)">
        <path id="Path_1976" data-name="Path 1976" d="M888.894,376.187h-8.616a10.55,10.55,0,0,1-10.538-10.538V340.528A10.55,10.55,0,0,1,880.278,330h8.616a10.55,10.55,0,0,1,10.536,10.538v25.111A10.55,10.55,0,0,1,888.894,376.187Zm-8.616-44.78a9.141,9.141,0,0,0-9.131,9.131v25.111a9.141,9.141,0,0,0,9.131,9.131h8.616a9.141,9.141,0,0,0,9.129-9.131V340.528a9.141,9.141,0,0,0-9.129-9.12Z" transform="translate(-869.74 -330)" fill="#fff"/>
      </g>
      <g id="letter_E" data-name="letter E" transform="translate(3.271 12.124)">
        <path id="Path_1977" data-name="Path 1977" d="M897.217,401.4l-1.534,1.609a11.262,11.262,0,0,1-.133-1.737A10.778,10.778,0,0,1,906.1,390.3a10.347,10.347,0,0,1,8.312,4.222l-1.329,1.005a8.694,8.694,0,0,0-6.985-3.573,9.114,9.114,0,0,0-8.883,9.307C897.215,401.308,897.215,401.355,897.217,401.4Z" transform="translate(-893.632 -390.3)" fill="#fff"/>
        <path id="Path_1978" data-name="Path 1978" d="M920.094,466.961a10.338,10.338,0,0,1-17.984-.816l1.22-1.275a8.874,8.874,0,0,0,8.007,5.278,8.777,8.777,0,0,0,7.357-4.092Z" transform="translate(-898.873 -449.876)" fill="#fff"/>
        <g id="letter_M" data-name="letter M" transform="translate(0 5.986)">
          <path id="Path_1979" data-name="Path 1979" d="M944.361,427.3l-4.625-4.83-4.486,4.683L934.05,426l5.686-5.934,5.827,6.08Z" transform="translate(-924.391 -420.07)" fill="#fff"/>
          <path id="Path_1980" data-name="Path 1980" d="M898.142,439l-4.725-4.932-6.318,6.593-1.09-1.267,7.407-7.731,5.925,6.185Z" transform="translate(-886.01 -429.33)" fill="#fff"/>
        </g>
      </g>
    </g>
  </g>
</svg>
